<?xml version="1.0" standalone="no"?>
<!DOCTYPE svg PUBLIC "-//W3C//DTD SVG 20010904//EN"
 "http://www.w3.org/TR/2001/REC-SVG-20010904/DTD/svg10.dtd">
<svg version="1.0" xmlns="http://www.w3.org/2000/svg"
 width="417.000000pt" height="417.000000pt" viewBox="0 0 417.000000 417.000000"
 preserveAspectRatio="xMidYMid meet">
<metadata>
Created by potrace 1.14, written by Peter Selinger 2001-2017
</metadata>
<g transform="translate(0.000000,417.000000) scale(0.100000,-0.100000)"
fill="#000000" stroke="none">
<path d="M2125 3829 c-88 -28 -209 -66 -270 -85 -130 -41 -127 -40 -235 -48
-47 -4 -105 -9 -130 -11 -111 -11 -178 -17 -220 -20 -79 -6 -184 -15 -230 -20
-25 -2 -79 -7 -120 -11 -70 -6 -103 -10 -123 -13 -5 0 -6 -34 -2 -73 13 -132
14 -131 -20 -139 -16 -4 -163 -48 -325 -99 -162 -51 -311 -96 -330 -102 -19
-5 -46 -13 -60 -18 -14 -4 -32 -10 -41 -13 -21 -7 -27 14 151 -557 51 -162 93
-299 94 -305 1 -5 20 -64 41 -130 21 -66 39 -127 41 -135 1 -8 32 -109 69
-225 81 -256 395 -1270 438 -1413 17 -56 35 -102 40 -102 6 0 62 16 126 36 63
20 122 38 130 40 9 2 140 42 291 90 151 47 319 99 374 116 l98 30 142 -26 c77
-14 152 -28 166 -31 39 -8 203 -37 220 -40 8 -1 40 -7 70 -13 30 -6 66 -13 80
-16 14 -2 79 -14 145 -26 66 -12 131 -24 145 -26 14 -3 57 -11 95 -19 39 -7
171 -32 295 -54 124 -23 236 -43 250 -46 95 -19 98 -19 104 11 9 40 14 70 26
139 6 33 15 80 20 105 5 25 16 86 25 135 9 50 25 135 35 190 11 55 22 116 25
135 3 19 12 69 20 110 8 41 17 89 20 105 2 17 7 41 10 55 3 14 10 52 16 85 5
33 17 94 24 135 19 97 22 114 45 245 11 61 22 121 25 135 3 14 12 61 20 105 8
44 23 125 34 180 10 55 22 117 25 138 3 20 18 99 32 175 14 75 28 151 31 167
2 17 16 89 29 160 14 72 32 168 40 215 8 47 17 92 19 100 2 8 7 36 10 63 5 35
3 47 -7 48 -7 0 -20 2 -28 4 -19 3 -175 32 -215 40 -43 7 -136 24 -165 30 -14
3 -52 10 -85 15 -33 6 -91 17 -130 25 -38 8 -83 16 -100 19 -126 21 -195 35
-204 40 -4 3 -9 24 -10 48 -1 24 -3 57 -6 73 -2 17 -7 68 -11 115 -7 84 -10
122 -13 149 -1 10 -17 12 -78 6 -43 -3 -98 -8 -123 -10 -61 -5 -188 -17 -225
-20 -16 -2 -66 -6 -110 -10 -44 -4 -96 -8 -115 -10 -19 -2 -72 -6 -116 -10
l-82 -7 -17 54 c-10 29 -20 56 -24 60 -3 3 -78 -16 -166 -43z"/>
</g>
</svg>
